<svg width="84" height="71" viewBox="0 0 84 71" fill="none" xmlns="http://www.w3.org/2000/svg">
<path d="M24 69H14.0024V17.047H0V10.1657H2.06002C10.7323 10.1657 14.3914 5.75103 15.3709 1H24V69Z" fill="white"/>
<path d="M78.1402 9.69591C73.231 2.81858 65.6686 0 57.6237 0C46.798 0 34 7.06054 34 23.0983C34 38.1776 46.7696 45.2241 56.7582 45.2241C62.8167 45.2241 69.2441 43.1102 73.6425 37.7831H74.0255V38.5863C74.0255 58.9083 65.0301 63.2066 57.7088 63.2066C50.9126 63.2066 46.7412 58.2318 45.1663 53.4121H35.206C37.462 64.1227 46.5426 71 57.7231 71C69.8825 71 84 65.1796 84 35.5846C84 24.2539 81.9001 14.9948 78.1544 9.68182L78.1402 9.69591ZM57.7231 37.4448C50.6856 37.4448 44.0596 32.2304 44.0596 22.6191C44.0596 13.0077 50.6856 7.79337 57.7231 7.79337C65.7537 7.79337 72.3939 13.501 72.3939 22.6191C72.3939 31.7372 65.7537 37.4448 57.7231 37.4448Z" fill="white"/>
</svg>
