<svg width="286" height="78" viewBox="0 0 286 78" fill="none" xmlns="http://www.w3.org/2000/svg">
<path d="M0 54.8887V52.8887H285.599V54.8887H0Z" fill="white"/>
<path d="M20.7916 0.869019C29.5048 0.869019 34.2524 5.64824 34.2524 12.979C34.2524 20.3098 29.5048 25.089 20.7916 25.089H9.8507V39.9086H3.83914V0.869019H20.7916ZM19.9305 20.0412C25.2548 20.0412 28.1223 17.466 28.1223 12.979C28.1223 8.49208 25.2548 5.92473 19.9305 5.92473H9.8507V20.0412H19.9305Z" fill="white"/>
<path d="M40.7062 29.4338L36.8276 39.9086H30.3341L45.6198 0.869019H53.2349L68.5205 39.9086H61.9639L58.0694 29.4338H40.7062ZM49.4747 6.31181H49.2614L42.5784 24.3781H56.1972L49.4826 6.31181H49.4747Z" fill="white"/>
<path d="M110.522 0.869019H116.534V39.9086H110.522V0.869019Z" fill="white"/>
<path d="M130.888 17.8609H151.15V22.8061H130.888V39.9086H124.876V0.869019H152.027V5.92473H130.896V17.8688L130.888 17.8609Z" fill="white"/>
<path d="M157.225 0.869019H163.236V39.9086H157.225V0.869019Z" fill="white"/>
<path d="M249.491 39.9084H244.009V10.6248H236.331V6.74614H237.46C242.216 6.74614 244.222 4.25778 244.76 1.57983H249.491V39.9084Z" fill="white"/>
<path d="M198.2 27.5852C196.335 33.3361 192.022 35.7296 187.393 35.7296C179.825 35.7296 174.801 30.0657 174.801 20.3887C174.801 10.7118 179.604 5.04781 187.164 5.04781C191.793 5.04781 195.948 7.44137 197.813 13.1922H203.745C201.28 3.91818 194.376 0 187.164 0C176.112 0 168.679 7.81265 168.679 20.3887C168.679 32.9648 176.342 40.7775 187.401 40.7775C194.605 40.7775 201.675 36.8593 204.14 27.5852H198.207H198.2Z" fill="white"/>
<path d="M98.3178 27.5852C96.4535 33.3361 92.1403 35.7296 87.5112 35.7296C79.9434 35.7296 74.9193 30.0657 74.9193 20.3887C74.9193 10.7118 79.7223 5.04781 87.2821 5.04781C91.9113 5.04781 96.0664 7.44137 97.9307 13.1922H103.863C101.399 3.91818 94.4944 0 87.2821 0C76.2307 0 68.7972 7.81265 68.7972 20.3887C68.7972 32.9648 76.4597 40.7775 87.5191 40.7775C94.7235 40.7775 101.794 36.8593 104.258 27.5852H98.3257H98.3178Z" fill="white"/>
<path d="M279.533 6.30391C276.8 2.44893 272.59 0.869019 268.11 0.869019C262.083 0.869019 254.958 4.82669 254.958 13.8164C254.958 22.2689 262.067 26.2187 267.629 26.2187C271.002 26.2187 274.58 25.0337 277.029 22.0477H277.242V22.498C277.242 33.8891 272.234 36.2985 268.158 36.2985C264.374 36.2985 262.052 33.5099 261.175 30.8083H255.629C256.885 36.8119 261.941 40.6669 268.166 40.6669C274.936 40.6669 282.796 37.4044 282.796 20.8154C282.796 14.4641 281.627 9.27413 279.541 6.29601L279.533 6.30391ZM268.166 21.8581C264.248 21.8581 260.559 18.9353 260.559 13.5478C260.559 8.1603 264.248 5.23747 268.166 5.23747C272.637 5.23747 276.334 8.43678 276.334 13.5478C276.334 18.6588 272.637 21.8581 268.166 21.8581Z" fill="white"/>
<path d="M10.5301 76.2699H9.045V72.6204H5.00043V76.2699H3.51532V67.8569H5.00043V71.388H9.045V67.8569H10.5301V76.2699Z" fill="white"/>
<path d="M20.8471 72.0677C20.8471 74.793 19.2119 76.4598 16.8025 76.4598C14.3931 76.4598 12.7579 74.793 12.7579 72.0677C12.7579 69.3423 14.3931 67.6755 16.8025 67.6755C19.2119 67.6755 20.8471 69.3423 20.8471 72.0677ZM19.3383 72.0677C19.3383 70.0217 18.3271 68.9 16.8025 68.9C15.2779 68.9 14.2667 70.0217 14.2667 72.0677C14.2667 74.1137 15.2779 75.2354 16.8025 75.2354C18.3271 75.2354 19.3383 74.1137 19.3383 72.0677Z" fill="white"/>
<path d="M26.5426 69.1288V76.2699H25.0575V69.1288H22.2769V67.8569H29.3233V69.1288H26.5426Z" fill="white"/>
<path d="M37.0488 71.3485V72.5335H32.7673V75.0139H37.2463V76.2699H31.2822V67.8569H37.2463V69.0735H32.7673V71.3485H37.0488Z" fill="white"/>
<path d="M39.5215 67.8569H41.0066V74.9981H45.5409V76.2699H39.5215V67.8569Z" fill="white"/>
<path d="M134.932 73.2365V76.2699H133.447V67.8569H134.932V71.5302L138.345 67.8569H140.106L137.096 71.0563L140.604 76.2699H138.811L136.03 72.0674L134.924 73.2365H134.932Z" fill="white"/>
<path d="M149.602 72.0677C149.602 74.793 147.966 76.4598 145.557 76.4598C143.148 76.4598 141.513 74.793 141.513 72.0677C141.513 69.3423 143.148 67.6755 145.557 67.6755C147.966 67.6755 149.602 69.3423 149.602 72.0677ZM148.093 72.0677C148.093 70.0217 147.082 68.9 145.557 68.9C144.032 68.9 143.021 70.0217 143.021 72.0677C143.021 74.1137 144.032 75.2354 145.557 75.2354C147.082 75.2354 148.093 74.1137 148.093 72.0677Z" fill="white"/>
<path d="M157.335 76.2699L153.283 69.9108H153.236V76.2699H151.861V67.8569H153.528L157.525 74.1134H157.572V67.8569H158.947V76.2699H157.335Z" fill="white"/>
<path d="M163.157 74.1214L162.383 76.278H160.787L164.018 67.865H165.93L169.161 76.278H167.549L166.767 74.1214H163.141H163.157ZM164.99 69.1684H164.942L163.592 72.9286H166.356L164.998 69.1684H164.99Z" fill="white"/>
<path d="M172.929 75.907C172.929 77.2025 172.455 77.9767 171.357 78.0004V77.2815C171.807 77.2578 172.005 76.9497 172.005 76.2704H171.302V74.6747H172.929V75.907Z" fill="white"/>
<path d="M185.829 76.2699H184.344V72.6204H180.299V76.2699H178.814V67.8569H180.299V71.388H184.344V67.8569H185.829V76.2699Z" fill="white"/>
<path d="M190.039 74.1214L189.265 76.278H187.669L190.9 67.865H192.812L196.043 76.278H194.432L193.649 74.1214H190.024H190.039ZM191.872 69.1684H191.825L190.474 72.9286H193.239L191.88 69.1684H191.872Z" fill="white"/>
<path d="M202.078 69.9108H202.031L200.577 76.2699H198.824L196.73 67.8569H198.255L199.708 74.3978H199.756L201.225 67.8569H202.876L204.345 74.3978H204.393L205.854 67.8569H207.395L205.278 76.2699H203.563L202.086 69.9108H202.078Z" fill="white"/>
<path d="M210.444 74.1214L209.67 76.278H208.074L211.305 67.865H213.217L216.448 76.278H214.836L214.054 74.1214H210.428H210.444ZM212.277 69.1684H212.229L210.878 72.9286H213.643L212.285 69.1684H212.277Z" fill="white"/>
<path d="M218.32 67.8569H219.805V76.2699H218.32V67.8569Z" fill="white"/>
<path d="M222.309 69.9503C222.309 68.6548 222.783 67.8806 223.842 67.8569V68.5758C223.391 68.5995 223.194 68.9076 223.194 69.5869H223.897V71.1826H222.309V69.9503Z" fill="white"/>
<path d="M226.393 67.8569H227.878V76.2699H226.393V67.8569Z" fill="white"/>
<path d="M233.795 67.8569H235.28V76.2699H233.795V67.8569Z" fill="white"/>
<path d="M242.698 70.3061C242.5 69.3186 241.781 68.8289 240.754 68.8289C239.727 68.8289 239.127 69.3344 239.127 70.0375C239.127 70.7406 239.68 70.9301 240.399 71.1039L241.813 71.4357C243.101 71.7596 244.372 72.0914 244.372 73.9636C244.372 75.6462 242.864 76.4598 241.031 76.4598C238.977 76.4598 237.61 75.4882 237.334 73.6792L238.803 73.5291C238.961 74.8562 239.941 75.2986 241.055 75.2986C242.168 75.2986 242.864 74.8167 242.864 74.011C242.864 73.2052 242.247 72.984 241.371 72.7707L239.893 72.4074C238.78 72.1309 237.618 71.7043 237.618 70.1007C237.618 68.5998 238.985 67.6755 240.77 67.6755C242.556 67.6755 243.772 68.5919 244.159 70.2034L242.69 70.314L242.698 70.3061Z" fill="white"/>
<path d="M246.592 67.8569H248.077V74.9981H252.612V76.2699H246.592V67.8569Z" fill="white"/>
<path d="M256.569 74.1214L255.795 76.278H254.199L257.43 67.865H259.342L262.573 76.278H260.961L260.179 74.1214H256.553H256.569ZM258.402 69.1684H258.355L257.004 72.9286H259.769L258.41 69.1684H258.402Z" fill="white"/>
<path d="M269.912 76.2699L265.859 69.9108H265.812V76.2699H264.437V67.8569H266.104L270.101 74.1134H270.149V67.8569H271.523V76.2699H269.912Z" fill="white"/>
<path d="M277.337 67.8568C279.77 67.8568 281.413 69.255 281.413 72.0593C281.413 74.8637 279.77 76.2619 277.337 76.2619H274.083V67.8489H277.337V67.8568ZM277.14 75.0533C278.894 75.0533 279.905 74.0737 279.905 72.0672C279.905 70.0608 278.894 69.0812 277.14 69.0812H275.568V75.0612H277.14V75.0533Z" fill="white"/>
</svg>
