<svg width="359" height="73" viewBox="0 0 359 73" fill="none" xmlns="http://www.w3.org/2000/svg">
<path d="M30.0997 2C45.5704 2 54 10.447 54 23.4037C54 36.3604 45.5704 44.8074 30.0997 44.8074H10.6738V71H0V2H30.0997ZM28.5709 35.8857C38.0244 35.8857 43.1158 31.3341 43.1158 23.4037C43.1158 15.4733 38.0244 10.9357 28.5709 10.9357H10.6738V35.8857H28.5709Z" fill="white"/>
<path d="M65.7416 52.4864L58.7331 71H47L74.62 2H88.38L116 71H104.153L97.1156 52.4864H65.7416ZM81.5856 11.6198H81.2002L69.1245 43.5508H93.7327L81.5999 11.6198H81.5856Z" fill="white"/>
<path d="M191 2H202V71H191V2Z" fill="white"/>
<path d="M227.628 32.0322H263.45V40.7724H227.628V71H217V2H265V10.9357H227.642V32.0461L227.628 32.0322Z" fill="white"/>
<path d="M275 2H285V71H275V2Z" fill="white"/>
<path d="M348.279 49.3832C344.914 59.6784 337.13 63.9634 328.775 63.9634C315.117 63.9634 306.049 53.8237 306.049 36.5C306.049 19.1763 314.718 9.03661 328.362 9.03661C336.716 9.03661 344.215 13.3216 347.58 23.6168H358.287C353.839 7.01433 341.378 0 328.362 0C308.416 0 295 13.9862 295 36.5C295 59.0138 308.829 73 328.789 73C341.792 73 354.552 65.9857 359 49.3832H348.293H348.279Z" fill="white"/>
<path d="M169.279 49.3832C165.914 59.6784 158.13 63.9634 149.775 63.9634C136.117 63.9634 127.049 53.8237 127.049 36.5C127.049 19.1763 135.718 9.03661 149.362 9.03661C157.716 9.03661 165.215 13.3216 168.58 23.6168H179.287C174.839 7.01433 162.378 0 149.362 0C129.416 0 116 13.9862 116 36.5C116 59.0138 129.829 73 149.789 73C162.792 73 175.552 65.9857 180 49.3832H169.293H169.279Z" fill="white"/>
</svg>
